Coordinates
nRows=238
nColumns=2
inDegrees=yes
endheader
time	ankle_angle_r	
4.3246	  9.399616	
4.35786	  9.400745	
4.39113	  9.409492	
4.4244	  9.418478	
4.45766	  9.421472	
4.49093	  9.420700	
4.52419	  9.416513	
4.55746	  9.405974	
4.59073	  9.388601	
4.62399	  9.369904	
4.65726	  9.358122	
4.69052	  9.357451	
4.72379	  9.366131	
4.75706	  9.376522	
4.79032	  9.380513	
4.82359	  9.378394	
4.85685	  9.375587	
4.89012	  9.375559	
4.92339	  9.380379	
4.95665	  9.388288	
4.98992	  9.393531	
5.02319	  9.395028	
5.05645	  9.396085	
5.08972	  9.397467	
5.12298	  9.397675	
5.15625	  9.393559	
5.18952	  9.383408	
5.22278	  9.373578	
5.25605	  9.372267	
5.28931	  9.378452	
5.32258	  9.385952	
5.35585	  9.390848	
5.38911	  9.392168	
5.42238	  9.392536	
5.45565	  9.393521	
5.48891	  9.391524	
5.52218	  9.386249	
5.55544	  9.382645	
5.58871	  9.381014	
5.62198	  9.378300	
5.65524	  9.373939	
5.68851	  9.369013	
5.72177	  9.366324	
5.75504	  9.366944	
5.78831	  9.368286	
5.82157	  9.368743	
5.85484	  9.368295	
5.8881	  9.371085	
5.92137	  9.383539	
5.95464	  9.399177	
5.9879	  9.403225	
6.02117	  9.395773	
6.05444	  9.390068	
6.0877	  9.393634	
6.12097	  9.402028	
6.15423	  9.405819	
6.1875	  9.401578	
6.22077	  9.394298	
6.25403	  9.388588	
6.2873	  9.384616	
6.32056	  9.382243	
6.35383	  9.383152	
6.3871	  9.390825	
6.42036	  9.403723	
6.45363	  9.409854	
6.4869	  9.404788	
6.52016	  9.401106	
6.55343	  9.403564	
6.58669	  9.403177	
6.61996	  9.398994	
6.65323	  9.397820	
6.68649	  9.403735	
6.71976	  9.418302	
6.75302	  9.436040	
6.78629	  9.446870	
6.81956	  9.450573	
6.85282	  9.455030	
6.88609	  9.459777	
6.91935	  9.455084	
6.95262	  9.439901	
6.98589	  9.426915	
7.01915	  9.423189	
7.05242	  9.422501	
7.08569	  9.420857	
7.11895	  9.422227	
7.15222	  9.428801	
7.18548	  9.437155	
7.21875	  9.442977	
7.25202	  9.445356	
7.28528	  9.447809	
7.31855	  9.453281	
7.35181	  9.458927	
7.38508	  9.460684	
7.41835	  9.459813	
7.45161	  9.460281	
7.48488	  9.463096	
7.51815	  9.465082	
7.55141	  9.461894	
7.58468	  9.455619	
7.61794	  9.452029	
7.65121	  9.450126	
7.68448	  9.450335	
7.71774	  9.458523	
7.75101	  9.468943	
7.78427	  9.464900	
7.81754	  9.441112	
7.85081	  9.412078	
7.88407	  9.397629	
7.91734	  9.404844	
7.9506	  9.425792	
7.98387	  9.446464	
8.01714	  9.453982	
8.0504	  9.445671	
8.08367	  9.431526	
8.11694	  9.420715	
8.1502	  9.415486	
8.18347	  9.417209	
8.21673	  9.421571	
8.25	  9.419964	
8.28327	  9.415159	
8.31653	  9.414321	
8.3498	  9.415625	
8.38306	  9.416493	
8.41633	  9.415606	
8.4496	  9.411945	
8.48286	  9.410749	
8.51613	  9.415867	
8.5494	  9.422411	
8.58266	  9.422230	
8.61593	  9.411405	
8.64919	  9.396800	
8.68246	  9.391675	
8.71573	  9.401000	
8.74899	  9.418084	
8.78226	  9.433945	
8.81552	  9.440146	
8.84879	  9.430975	
8.88206	  9.414285	
8.91532	  9.406203	
8.94859	  9.411916	
8.98185	  9.424079	
9.01512	  9.433241	
9.04839	  9.434734	
9.08165	  9.431974	
9.11492	  9.432262	
9.14819	  9.438513	
9.18145	  9.446144	
9.21472	  9.447619	
9.24798	  9.442550	
9.28125	  9.440721	
9.31452	  9.450560	
9.34778	  9.467025	
9.38105	  9.475720	
9.41431	  9.471504	
9.44758	  9.464752	
9.48085	  9.462367	
9.51411	  9.457303	
9.54738	  9.446014	
9.58065	  9.437809	
9.61391	  9.440993	
9.64718	  9.454663	
9.68044	  9.471038	
9.71371	  9.481104	
9.74698	  9.482980	
9.78024	  9.478035	
9.81351	  9.464840	
9.84677	  9.449005	
9.88004	  9.442479	
9.91331	  9.447723	
9.94657	  9.457991	
9.97984	  9.466795	
10.0131	  9.470151	
10.0464	  9.467959	
10.0796	  9.461877	
10.1129	  9.452457	
10.1462	  9.441853	
10.1794	  9.430618	
10.2127	  9.415526	
10.246	  9.399445	
10.2792	  9.390073	
10.3125	  9.387607	
10.3458	  9.387933	
10.379	  9.391719	
10.4123	  9.401997	
10.4456	  9.416734	
10.4788	  9.428638	
10.5121	  9.433611	
10.5454	  9.432270	
10.5786	  9.424534	
10.6119	  9.413956	
10.6452	  9.408159	
10.6784	  9.405608	
10.7117	  9.400162	
10.745	  9.398313	
10.7782	  9.410262	
10.8115	  9.432374	
10.8448	  9.449964	
10.878	  9.451334	
10.9113	  9.441065	
10.9446	  9.434222	
10.9778	  9.432427	
11.0111	  9.423982	
11.0444	  9.408230	
11.0776	  9.397671	
11.1109	  9.398949	
11.1442	  9.404156	
11.1774	  9.401619	
11.2107	  9.392572	
11.244	  9.385728	
11.2772	  9.381814	
11.3105	  9.379027	
11.3437	  9.378922	
11.377	  9.381050	
11.4103	  9.384975	
11.4435	  9.391162	
11.4768	  9.396210	
11.5101	  9.396130	
11.5433	  9.391487	
11.5766	  9.386862	
11.6099	  9.388008	
11.6431	  9.394903	
11.6764	  9.400055	
11.7097	  9.399185	
11.7429	  9.394754	
11.7762	  9.389440	
11.8095	  9.384814	
11.8427	  9.380608	
11.876	  9.376336	
11.9093	  9.377056	
11.9425	  9.386146	
11.9758	  9.396559	
12.0091	  9.400394	
12.0423	  9.395804	
12.0756	  9.383612	
12.1089	  9.369710	
12.1421	  9.360651	
12.1754	  9.352248	
12.2087	  9.338364	
